<?xml version="1.0" standalone="no"?>
<!DOCTYPE svg PUBLIC "-//W3C//DTD SVG 20010904//EN"
 "http://www.w3.org/TR/2001/REC-SVG-20010904/DTD/svg10.dtd">
<svg version="1.0" xmlns="http://www.w3.org/2000/svg"
 width="148.000000pt" height="198.000000pt" viewBox="0 0 148.000000 198.000000"
 preserveAspectRatio="xMidYMid meet">
<metadata>
Created by potrace 1.16, written by Peter Selinger 2001-2019
</metadata>
<g transform="translate(0.000000,198.000000) scale(0.100000,-0.100000)"
fill="#000000" stroke="none">
<path d="M270 1811 c0 -5 11 -25 25 -45 l24 -36 -38 0 c-21 0 -59 6 -86 14
l-47 15 23 -25 c13 -13 47 -36 76 -51 l54 -26 -24 -26 c-52 -55 -84 -161 -73
-243 9 -67 42 -152 73 -189 15 -17 22 -34 17 -39 -5 -4 -44 -35 -86 -69 -85
-66 -143 -135 -178 -206 -30 -63 -26 -178 10 -249 45 -87 174 -184 304 -226
22 -7 78 -42 125 -77 99 -75 214 -133 262 -133 19 0 62 13 96 29 42 20 60 25
56 15 -3 -8 -11 -14 -18 -14 -8 0 -30 -10 -50 -21 -26 -16 -34 -26 -30 -38 4
-9 9 -31 12 -49 7 -38 22 -37 43 4 8 16 16 31 17 33 1 2 20 -11 43 -29 l40
-32 0 39 c0 22 -5 44 -12 51 -9 9 -8 12 6 12 9 0 26 -5 37 -10 14 -8 19 -7 19
2 0 25 -31 58 -63 66 l-32 9 32 16 c18 10 57 37 87 62 32 26 88 57 135 75 139
54 236 132 286 230 10 20 20 66 23 108 4 66 2 78 -26 135 -32 64 -121 161
-214 233 -52 40 -55 46 -34 63 8 7 26 38 42 69 22 46 28 75 32 149 4 83 2 96
-22 150 -15 32 -36 68 -47 80 l-21 21 44 20 c46 21 129 89 93 77 -41 -15 -91
-25 -122 -25 l-32 0 24 36 c25 36 32 59 18 52 -87 -44 -114 -51 -208 -55 -116
-6 -160 -25 -218 -94 l-34 -42 -29 38 c-52 69 -95 88 -216 96 -83 5 -120 13
-162 32 -31 14 -56 22 -56 18z m293 -192 c67 -34 134 -112 153 -178 l17 -56
12 40 c19 64 40 98 90 144 59 55 92 68 192 76 116 10 126 6 162 -67 27 -54 31
-71 31 -147 0 -69 -5 -96 -24 -137 -78 -168 -286 -187 -415 -37 -22 26 -41 55
-41 62 0 8 -13 -6 -29 -31 -54 -85 -136 -132 -233 -131 -54 0 -75 5 -113 27
-124 73 -161 284 -73 422 l29 47 100 -7 c72 -4 112 -12 142 -27z m241 -446
c68 -80 197 -106 292 -58 27 14 54 23 60 21 22 -8 84 -116 99 -172 31 -120 13
-210 -65 -327 -98 -146 -313 -315 -436 -341 -97 -21 -369 176 -484 350 -59 90
-73 141 -69 241 3 64 10 91 36 144 18 35 43 75 57 88 l25 23 52 -26 c65 -32
144 -35 205 -7 54 25 118 92 139 148 l17 44 23 -48 c12 -26 34 -62 49 -80z
m-662 -334 c-6 -116 49 -238 160 -355 28 -30 47 -54 42 -54 -5 0 -32 12 -59
26 -181 96 -252 253 -180 399 14 30 30 55 33 55 4 0 5 -32 4 -71z m1218 26
c21 -38 25 -59 25 -123 -1 -92 -20 -135 -90 -204 -39 -38 -148 -108 -169 -108
-3 0 21 32 54 72 111 132 157 242 147 350 -3 32 -2 58 2 58 3 0 18 -20 31 -45z"/>
<path d="M440 1511 c-49 -26 -72 -62 -77 -118 -5 -60 18 -108 67 -141 29 -20
44 -23 94 -20 54 4 62 8 97 46 35 37 39 47 39 94 0 123 -115 196 -220 139z
m135 -15 c68 -29 95 -118 55 -183 -68 -112 -234 -64 -234 66 0 55 22 93 67
115 40 20 68 20 112 2z"/>
<path d="M894 1521 c-11 -5 -34 -25 -51 -44 -82 -93 -27 -233 97 -245 60 -5
112 18 140 63 43 70 35 137 -25 195 -29 28 -43 34 -87 37 -29 1 -62 -1 -74 -6z
m106 -26 c48 -25 70 -62 70 -117 0 -43 -5 -55 -33 -83 -60 -60 -134 -59 -186
1 -25 28 -31 43 -31 82 0 54 17 85 64 113 37 23 77 24 116 4z"/>
<path d="M486 239 c-32 -25 -37 -66 -7 -49 11 5 28 10 37 10 14 0 15 -3 6 -12
-7 -7 -12 -29 -12 -51 l0 -39 40 32 c23 18 42 31 43 29 1 -2 9 -17 17 -33 8
-16 20 -31 26 -33 9 -3 25 47 28 91 1 12 -53 44 -75 45 -9 1 -19 8 -23 16 -8
21 -49 19 -80 -6z"/>
</g>
</svg>
